<svg xmlns="http://www.w3.org/2000/svg" width="69.031" height="66" viewBox="0 0 69.031 66">
  <defs>
    <style>
      .cls-1 {
        fill: #fff;
        fill-rule: evenodd;
      }
    </style>
  </defs>
  <path id="call" class="cls-1" d="M79.357,27.756c-2.648-3.613-7.284-6.875-13.055-9.183a51.475,51.475,0,0,0-37.552-.056c-5.781,2.291-10.429,5.538-13.086,9.143-2.552,3.462-3.288,7.194-2.127,10.792A5.7,5.7,0,0,0,19,42.36l8.618,0.008H27.63a5.777,5.777,0,0,0,4.43-2.048A5.584,5.584,0,0,0,33.294,35.7q-0.013-.073-0.032-0.144L32.809,33.81a35.4,35.4,0,0,1,14.7-3.448A36.334,36.334,0,0,1,62.2,33.878l-0.461,1.739q-0.02.074-.033,0.149a5.585,5.585,0,0,0,1.221,4.621,5.777,5.777,0,0,0,4.434,2.061l8.618,0.008h0.009a5.7,5.7,0,0,0,5.467-3.892C82.628,34.966,81.9,31.229,79.357,27.756ZM66.988,51.182l-6.427-6.693a2.067,2.067,0,0,0-1.491-.634H54.917V41.072a2.059,2.059,0,0,0-4.118,0v2.783H44.206V41.072a2.059,2.059,0,0,0-4.118,0v2.783H35.935a2.067,2.067,0,0,0-1.491.634l-6.427,6.693A27.855,27.855,0,0,0,20.2,70.557v8.4A2.051,2.051,0,0,0,22.261,81H72.743A2.051,2.051,0,0,0,74.8,78.958v-8.4A27.855,27.855,0,0,0,66.988,51.182ZM47.5,73.536A10.688,10.688,0,1,1,58.278,62.848,10.744,10.744,0,0,1,47.5,73.536Zm0-17.291a6.6,6.6,0,1,0,6.658,6.6A6.638,6.638,0,0,0,47.5,56.245Z" transform="translate(-13 -15)"/>
</svg>
